<?xml version="1.0" standalone="no"?>
<!DOCTYPE svg PUBLIC "-//W3C//DTD SVG 20010904//EN"
 "http://www.w3.org/TR/2001/REC-SVG-20010904/DTD/svg10.dtd">
<svg version="1.0" xmlns="http://www.w3.org/2000/svg"
 width="400.000000pt" height="400.000000pt" viewBox="0 0 400.000000 400.000000"
 preserveAspectRatio="xMidYMid meet">
<metadata>
Created by potrace 1.11, written by Peter Selinger 2001-2013
</metadata>
<g transform="translate(0.000000,400.000000) scale(0.100000,-0.100000)"
fill="#000000" stroke="none">
<path d="M2826 3801 c66 -5 91 -12 130 -37 100 -61 80 25 298 -1309 255 -1561
248 -1514 241 -1554 -9 -46 -58 -115 -105 -150 -22 -15 -65 -35 -97 -44 -61
-17 -814 -145 -1163 -197 -536 -81 -895 -130 -942 -130 -95 0 -212 75 -237
151 -6 19 -103 637 -216 1373 -191 1241 -205 1343 -194 1388 16 67 63 126 128
160 29 15 48 28 41 28 -7 0 -39 -14 -72 -32 -99 -53 -158 -145 -158 -247 0
-60 405 -2700 425 -2767 9 -33 32 -72 61 -105 l46 -54 -51 53 c-32 34 -56 70
-66 100 -14 43 -15 44 -10 10 13 -87 70 -167 153 -215 85 -50 113 -48 957 87
418 66 888 141 1044 166 156 24 295 47 310 51 89 21 186 106 214 186 23 70 7
198 -142 1102 -77 468 -174 1062 -216 1320 -51 312 -83 484 -96 512 -11 22
-42 61 -68 86 -59 55 -126 78 -225 75 l-71 -1 81 -6z m721 -3084 c-14 -23 -40
-55 -58 -72 -26 -24 -25 -20 9 19 23 26 47 64 54 83 7 19 14 30 16 24 2 -6 -7
-30 -21 -54z"/>
<path d="M2650 3790 c-27 -6 -29 -8 -10 -8 14 -1 43 3 65 7 33 7 35 9 10 9
-16 -1 -46 -4 -65 -8z"/>
<path d="M2573 3773 c9 -2 23 -2 30 0 6 3 -1 5 -18 5 -16 0 -22 -2 -12 -5z"/>
<path d="M2503 3763 c9 -2 25 -2 35 0 9 3 1 5 -18 5 -19 0 -27 -2 -17 -5z"/>
<path d="M2443 3753 c9 -2 23 -2 30 0 6 3 -1 5 -18 5 -16 0 -22 -2 -12 -5z"/>
<path d="M2383 3743 c9 -2 23 -2 30 0 6 3 -1 5 -18 5 -16 0 -22 -2 -12 -5z"/>
<path d="M2313 3733 c9 -2 25 -2 35 0 9 3 1 5 -18 5 -19 0 -27 -2 -17 -5z"/>
<path d="M2253 3723 c9 -2 23 -2 30 0 6 3 -1 5 -18 5 -16 0 -22 -2 -12 -5z"/>
<path d="M2193 3713 c9 -2 23 -2 30 0 6 3 -1 5 -18 5 -16 0 -22 -2 -12 -5z"/>
<path d="M2080 3700 c-27 -6 -29 -8 -10 -8 14 -1 43 3 65 7 33 7 35 9 10 9
-16 -1 -46 -4 -65 -8z"/>
<path d="M2003 3683 c9 -2 23 -2 30 0 6 3 -1 5 -18 5 -16 0 -22 -2 -12 -5z"/>
<path d="M1890 3670 c-27 -6 -29 -8 -10 -8 14 -1 43 3 65 7 33 7 35 9 10 9
-16 -1 -46 -4 -65 -8z"/>
<path d="M1813 3653 c9 -2 23 -2 30 0 6 3 -1 5 -18 5 -16 0 -22 -2 -12 -5z"/>
<path d="M1700 3640 c-27 -6 -29 -8 -10 -8 14 -1 43 3 65 7 33 7 35 9 10 9
-16 -1 -46 -4 -65 -8z"/>
<path d="M1623 3623 c9 -2 23 -2 30 0 6 3 -1 5 -18 5 -16 0 -22 -2 -12 -5z"/>
<path d="M1563 3613 c9 -2 23 -2 30 0 6 3 -1 5 -18 5 -16 0 -22 -2 -12 -5z"/>
<path d="M1493 3603 c9 -2 25 -2 35 0 9 3 1 5 -18 5 -19 0 -27 -2 -17 -5z"/>
<path d="M1433 3593 c9 -2 23 -2 30 0 6 3 -1 5 -18 5 -16 0 -22 -2 -12 -5z"/>
<path d="M1373 3583 c9 -2 23 -2 30 0 6 3 -1 5 -18 5 -16 0 -22 -2 -12 -5z"/>
<path d="M1303 3573 c9 -2 25 -2 35 0 9 3 1 5 -18 5 -19 0 -27 -2 -17 -5z"/>
<path d="M1243 3563 c9 -2 23 -2 30 0 6 3 -1 5 -18 5 -16 0 -22 -2 -12 -5z"/>
<path d="M1183 3553 c9 -2 23 -2 30 0 6 3 -1 5 -18 5 -16 0 -22 -2 -12 -5z"/>
<path d="M1070 3540 c-27 -6 -29 -8 -10 -8 14 -1 43 3 65 7 33 7 35 9 10 9
-16 -1 -46 -4 -65 -8z"/>
<path d="M993 3523 c9 -2 23 -2 30 0 6 3 -1 5 -18 5 -16 0 -22 -2 -12 -5z"/>
<path d="M880 3510 c-27 -6 -29 -8 -10 -8 14 -1 43 3 65 7 33 7 35 9 10 9 -16
-1 -46 -4 -65 -8z"/>
<path d="M803 3493 c9 -2 23 -2 30 0 6 3 -1 5 -18 5 -16 0 -22 -2 -12 -5z"/>
<path d="M743 3483 c9 -2 23 -2 30 0 6 3 -1 5 -18 5 -16 0 -22 -2 -12 -5z"/>
<path d="M2043 3376 c-587 -94 -752 -124 -697 -126 30 -2 1444 226 1444 232 0
14 -39 8 -747 -106z"/>
<path d="M934 3112 c-189 -66 -243 -292 -102 -432 97 -97 247 -101 351 -10
123 108 123 281 0 390 -46 40 -121 70 -172 70 -14 -1 -49 -9 -77 -18z m196
-35 c93 -48 145 -162 120 -266 -27 -113 -121 -186 -240 -186 -97 1 -169 46
-216 135 -27 51 -25 162 3 215 64 121 209 166 333 102z"/>
<path d="M961 3068 c-62 -14 -133 -86 -150 -153 -36 -142 100 -288 239 -256
105 24 170 101 170 201 0 143 -119 239 -259 208z"/>
<path d="M482 3035 c0 -16 2 -22 5 -12 2 9 2 23 0 30 -3 6 -5 -1 -5 -18z"/>
<path d="M492 2970 c0 -14 2 -19 5 -12 2 6 2 18 0 25 -3 6 -5 1 -5 -13z"/>
<path d="M502 2905 c0 -16 2 -22 5 -12 2 9 2 23 0 30 -3 6 -5 -1 -5 -18z"/>
<path d="M2153 2756 c-386 -62 -705 -115 -709 -119 -4 -4 -5 -9 -3 -10 2 -2
238 34 524 79 286 45 611 97 723 115 111 17 202 36 202 40 0 5 -8 9 -17 8 -10
-1 -334 -51 -720 -113z"/>
<path d="M511 2844 c0 -11 3 -14 6 -6 3 7 2 16 -1 19 -3 4 -6 -2 -5 -13z"/>
<path d="M522 2780 c0 -14 2 -19 5 -12 2 6 2 18 0 25 -3 6 -5 1 -5 -13z"/>
<path d="M532 2710 c0 -14 2 -19 5 -12 2 6 2 18 0 25 -3 6 -5 1 -5 -13z"/>
<path d="M541 2644 c0 -11 3 -14 6 -6 3 7 2 16 -1 19 -3 4 -6 -2 -5 -13z"/>
<path d="M552 2580 c0 -14 2 -19 5 -12 2 6 2 18 0 25 -3 6 -5 1 -5 -13z"/>
<path d="M561 2514 c0 -11 3 -14 6 -6 3 7 2 16 -1 19 -3 4 -6 -2 -5 -13z"/>
<path d="M1022 2497 c-19 -6 -55 -30 -81 -53 -143 -128 -113 -337 62 -431 48
-26 170 -24 222 4 90 48 145 138 145 238 0 101 -61 194 -154 236 -46 21 -140
24 -194 6z m186 -23 c49 -20 100 -70 123 -119 22 -48 25 -151 5 -199 -55 -133
-228 -187 -352 -110 -161 99 -149 338 21 423 50 25 150 27 203 5z"/>
<path d="M1062 2460 c-57 -14 -108 -55 -136 -111 -33 -67 -33 -120 -1 -186 78
-155 294 -154 370 2 24 47 27 64 22 111 -4 36 -15 70 -31 95 -46 68 -146 108
-224 89z"/>
<path d="M572 2450 c0 -14 2 -19 5 -12 2 6 2 18 0 25 -3 6 -5 1 -5 -13z"/>
<path d="M582 2380 c0 -14 2 -19 5 -12 2 6 2 18 0 25 -3 6 -5 1 -5 -13z"/>
<path d="M592 2320 c0 -14 2 -19 5 -12 2 6 2 18 0 25 -3 6 -5 1 -5 -13z"/>
<path d="M601 2254 c0 -11 3 -14 6 -6 3 7 2 16 -1 19 -3 4 -6 -2 -5 -13z"/>
<path d="M2257 2135 c-390 -63 -711 -116 -715 -119 -3 -3 -3 -8 -1 -10 2 -2
299 43 659 100 826 130 790 124 790 135 0 12 71 22 -733 -106z"/>
<path d="M612 2190 c0 -14 2 -19 5 -12 2 6 2 18 0 25 -3 6 -5 1 -5 -13z"/>
<path d="M622 2120 c0 -14 2 -19 5 -12 2 6 2 18 0 25 -3 6 -5 1 -5 -13z"/>
<path d="M632 2060 c0 -14 2 -19 5 -12 2 6 2 18 0 25 -3 6 -5 1 -5 -13z"/>
<path d="M642 1990 c0 -14 2 -19 5 -12 2 6 2 18 0 25 -3 6 -5 1 -5 -13z"/>
<path d="M652 1930 c0 -14 2 -19 5 -12 2 6 2 18 0 25 -3 6 -5 1 -5 -13z"/>
<path d="M1140 1891 c-78 -24 -157 -99 -178 -169 -53 -175 66 -342 244 -342
75 0 122 18 179 71 116 107 111 287 -12 388 -63 52 -161 74 -233 52z m197 -47
c164 -102 143 -356 -35 -431 -47 -20 -139 -19 -187 1 -91 39 -144 121 -145
224 0 103 44 176 135 219 70 34 165 28 232 -13z"/>
<path d="M1109 1817 c-56 -30 -100 -98 -107 -167 -6 -68 33 -150 91 -188 35
-23 51 -27 118 -27 71 0 80 2 116 31 77 63 106 139 83 223 -13 50 -72 119
-117 138 -51 21 -133 17 -184 -10z"/>
<path d="M662 1860 c0 -14 2 -19 5 -12 2 6 2 18 0 25 -3 6 -5 1 -5 -13z"/>
<path d="M671 1794 c0 -11 3 -14 6 -6 3 7 2 16 -1 19 -3 4 -6 -2 -5 -13z"/>
<path d="M682 1730 c0 -14 2 -19 5 -12 2 6 2 18 0 25 -3 6 -5 1 -5 -13z"/>
<path d="M691 1664 c0 -11 3 -14 6 -6 3 7 2 16 -1 19 -3 4 -6 -2 -5 -13z"/>
<path d="M2366 1514 c-391 -62 -716 -116 -724 -119 -8 -3 -12 -8 -10 -11 5 -4
1360 205 1436 221 19 5 34 27 15 24 -5 -1 -327 -53 -717 -115z"/>
<path d="M702 1600 c0 -14 2 -19 5 -12 2 6 2 18 0 25 -3 6 -5 1 -5 -13z"/>
<path d="M712 1540 c0 -14 2 -19 5 -12 2 6 2 18 0 25 -3 6 -5 1 -5 -13z"/>
<path d="M721 1474 c0 -11 3 -14 6 -6 3 7 2 16 -1 19 -3 4 -6 -2 -5 -13z"/>
<path d="M732 1410 c0 -14 2 -19 5 -12 2 6 2 18 0 25 -3 6 -5 1 -5 -13z"/>
<path d="M742 1340 c0 -14 2 -19 5 -12 2 6 2 18 0 25 -3 6 -5 1 -5 -13z"/>
<path d="M752 1280 c0 -14 2 -19 5 -12 2 6 2 18 0 25 -3 6 -5 1 -5 -13z"/>
<path d="M1205 1247 c-57 -27 -117 -89 -140 -143 -19 -46 -19 -144 0 -190 41
-98 135 -164 233 -164 77 0 126 17 178 63 107 94 124 240 41 349 -50 66 -113
100 -194 105 -57 3 -76 0 -118 -20z m231 -33 c165 -102 146 -354 -33 -429 -46
-19 -144 -19 -191 1 -49 20 -100 70 -123 119 -22 48 -25 151 -6 198 57 134
229 188 353 111z"/>
<path d="M1242 1207 c-124 -47 -177 -184 -116 -298 38 -69 90 -102 168 -107
74 -5 125 16 174 72 110 125 25 326 -144 341 -27 3 -64 -1 -82 -8z"/>
<path d="M762 1210 c0 -14 2 -19 5 -12 2 6 2 18 0 25 -3 6 -5 1 -5 -13z"/>
<path d="M772 1150 c0 -14 2 -19 5 -12 2 6 2 18 0 25 -3 6 -5 1 -5 -13z"/>
<path d="M782 1080 c0 -14 2 -19 5 -12 2 6 2 18 0 25 -3 6 -5 1 -5 -13z"/>
<path d="M792 1020 c0 -14 2 -19 5 -12 2 6 2 18 0 25 -3 6 -5 1 -5 -13z"/>
<path d="M2433 886 c-593 -95 -761 -126 -692 -126 36 0 1435 224 1444 232 19
16 -74 4 -752 -106z"/>
<path d="M802 950 c0 -14 2 -19 5 -12 2 6 2 18 0 25 -3 6 -5 1 -5 -13z"/>
<path d="M811 884 c0 -11 3 -14 6 -6 3 7 2 16 -1 19 -3 4 -6 -2 -5 -13z"/>
<path d="M822 820 c0 -14 2 -19 5 -12 2 6 2 18 0 25 -3 6 -5 1 -5 -13z"/>
<path d="M831 754 c0 -11 3 -14 6 -6 3 7 2 16 -1 19 -3 4 -6 -2 -5 -13z"/>
<path d="M842 690 c0 -14 2 -19 5 -12 2 6 2 18 0 25 -3 6 -5 1 -5 -13z"/>
<path d="M851 624 c0 -11 3 -14 6 -6 3 7 2 16 -1 19 -3 4 -6 -2 -5 -13z"/>
<path d="M862 560 c0 -14 2 -19 5 -12 2 6 2 18 0 25 -3 6 -5 1 -5 -13z"/>
<path d="M871 494 c0 -11 3 -14 6 -6 3 7 2 16 -1 19 -3 4 -6 -2 -5 -13z"/>
</g>
</svg>
